<svg width="24" height="24" viewBox="0 0 24 24" fill="none" xmlns="http://www.w3.org/2000/svg">
<g clip-path="url(#clip0_42_306)">
<path d="M6.75429 24C7.8201 24 8.68411 23.1046 8.68411 22C8.68411 20.8954 7.8201 20 6.75429 20C5.68847 20 4.82446 20.8954 4.82446 22C4.82446 23.1046 5.68847 24 6.75429 24Z" fill="#0FF29F"/>
<path d="M16.4035 24C17.4693 24 18.3333 23.1046 18.3333 22C18.3333 20.8954 17.4693 20 16.4035 20C15.3376 20 14.4736 20.8954 14.4736 22C14.4736 23.1046 15.3376 24 16.4035 24Z" fill="#0FF29F"/>
<path d="M5.45561 5L5.20184 2.938C5.10969 2.12869 4.73422 1.38256 4.14661 0.841037C3.559 0.299518 2.8001 0.000261877 2.01377 0L0 0V3H2.01377C2.09271 3.00088 2.16853 3.03202 2.22662 3.08742C2.28471 3.14282 2.32094 3.21855 2.32833 3.3L3.7757 15.059C3.86699 15.8689 4.24212 16.6159 4.82984 17.1581C5.41756 17.7003 6.17694 17.9999 6.96377 18H19.6842L23.1328 5H5.45561ZM17.4765 15H6.96377C6.88487 14.9993 6.80905 14.9682 6.75107 14.9128C6.6931 14.8573 6.65713 14.7815 6.65018 14.7L5.82518 8H19.3339L17.4765 15Z" fill="#0FF29F"/>
</g>
<defs>
<clipPath id="clip0_42_306">
<rect width="23.1579" height="24" fill="white"/>
</clipPath>
</defs>
</svg>
