<svg width="56" height="62" viewBox="0 0 56 62" fill="none" xmlns="http://www.w3.org/2000/svg">
<path d="M6.3999 23.915C13.4403 28.5723 20.4813 33.2296 27.522 37.8887C34.457 33.3744 41.3912 28.8624 48.3267 24.3496L52.0679 21.915L52.189 26.377C52.2994 30.4423 52.4096 34.5079 52.52 38.5732L52.5562 39.8896L51.4907 40.6631L28.981 57.0225L27.5142 58.0889L26.0444 57.0244C18.5576 51.6009 11.0706 46.1795 3.5835 40.7578L2.55225 40.0107L2.55029 38.7383C2.54068 34.4899 2.53061 30.2542 2.521 26.0059L2.51025 21.3418L6.3999 23.915Z" stroke="#0FF29F" stroke-width="5"/>
<path d="M6.3999 4.91504C13.4403 9.57234 20.4813 14.2296 27.522 18.8887C34.457 14.3744 41.3912 9.8624 48.3267 5.34961L52.0679 2.91504L52.189 7.37695C52.2994 11.4423 52.4096 15.5079 52.52 19.5732L52.5562 20.8896L51.4907 21.6631L28.981 38.0225L27.5142 39.0889L26.0444 38.0244C18.5576 32.6009 11.0706 27.1795 3.5835 21.7578L2.55225 21.0107L2.55029 19.7383C2.54063 15.4675 2.53066 11.2766 2.521 7.00586L2.51025 2.3418L6.3999 4.91504Z" stroke="#0FF29F" stroke-width="5"/>
</svg>
