<svg width="46" height="46" viewBox="0 0 46 46" fill="none" xmlns="http://www.w3.org/2000/svg">
<path d="M23 4.14383C29.141 4.14383 29.8693 4.16683 32.2939 4.278C34.8009 4.393 37.3827 4.96417 39.2093 6.79075C41.0531 8.63458 41.607 11.1914 41.722 13.7061C41.8332 16.1307 41.8562 16.859 41.8562 23C41.8562 29.141 41.8332 29.8693 41.722 32.2939C41.6089 34.7875 41.0243 37.3942 39.2093 39.2093C37.3654 41.0531 34.8105 41.607 32.2939 41.722C29.8693 41.8332 29.141 41.8562 23 41.8562C16.859 41.8562 16.1307 41.8332 13.7061 41.722C11.2317 41.6089 8.5905 41.0109 6.79075 39.2093C4.9565 37.375 4.393 34.7933 4.278 32.2939C4.16683 29.8693 4.14383 29.141 4.14383 23C4.14383 16.859 4.16683 16.1307 4.278 13.7061C4.39108 11.2221 4.98142 8.60008 6.79075 6.79075C8.63075 4.95075 11.1972 4.393 13.7061 4.278C16.1307 4.16683 16.859 4.14383 23 4.14383ZM23 0C16.7536 0 15.9697 0.0268333 13.5163 0.138C9.96092 0.300917 6.43042 1.28992 3.86017 3.86017C1.28033 6.44 0.300917 9.96283 0.138 13.5163C0.0268333 15.9697 0 16.7536 0 23C0 29.2464 0.0268333 30.0303 0.138 32.4837C0.300917 36.0352 1.29375 39.5753 3.86017 42.1398C6.43808 44.7178 9.96667 45.6991 13.5163 45.862C15.9697 45.9732 16.7536 46 23 46C29.2464 46 30.0303 45.9732 32.4837 45.862C36.0372 45.6991 39.5715 44.7082 42.1398 42.1398C44.7216 39.5581 45.6991 36.0372 45.862 32.4837C45.9732 30.0303 46 29.2464 46 23C46 16.7536 45.9732 15.9697 45.862 13.5163C45.6991 9.96092 44.7082 6.4285 42.1398 3.86017C39.5658 1.28608 36.0276 0.299 32.4837 0.138C30.0303 0.0268333 29.2464 0 23 0Z" fill="white"/>
<path d="M23 11.1895C16.4775 11.1895 11.1895 16.4775 11.1895 23C11.1895 29.5224 16.4775 34.8105 23 34.8105C29.5224 34.8105 34.8105 29.5224 34.8105 23C34.8105 16.4775 29.5224 11.1895 23 11.1895ZM23 30.6666C18.766 30.6666 15.3333 27.2339 15.3333 23C15.3333 18.766 18.766 15.3333 23 15.3333C27.2339 15.3333 30.6666 18.766 30.6666 23C30.6666 27.2339 27.2339 30.6666 23 30.6666Z" fill="white"/>
<path d="M35.2781 13.4819C36.8024 13.4819 38.0381 12.2462 38.0381 10.7219C38.0381 9.19761 36.8024 7.96191 35.2781 7.96191C33.7538 7.96191 32.5181 9.19761 32.5181 10.7219C32.5181 12.2462 33.7538 13.4819 35.2781 13.4819Z" fill="white"/>
</svg>
