<svg width="25" height="25" viewBox="0 0 25 25" fill="none" xmlns="http://www.w3.org/2000/svg">
<path d="M21.875 25H18.75V19.7917C18.75 19.2391 18.5305 18.7092 18.1398 18.3185C17.7491 17.9278 17.2192 17.7083 16.6667 17.7083H8.33333C7.7808 17.7083 7.25089 17.9278 6.86019 18.3185C6.46949 18.7092 6.25 19.2391 6.25 19.7917V25H3.125V19.7917C3.12665 18.4108 3.67592 17.087 4.65231 16.1106C5.62871 15.1342 6.95251 14.585 8.33333 14.5833H16.6667C18.0475 14.585 19.3713 15.1342 20.3477 16.1106C21.3241 17.087 21.8733 18.4108 21.875 19.7917V25Z" fill="#0FF29F"/>
<path d="M12.5 12.5C11.2639 12.5 10.0555 12.1334 9.02769 11.4467C7.99988 10.7599 7.1988 9.78381 6.72576 8.64177C6.25271 7.49974 6.12894 6.24307 6.37009 5.03069C6.61125 3.81831 7.20651 2.70466 8.08059 1.83059C8.95466 0.956507 10.0683 0.361252 11.2807 0.120095C12.4931 -0.121063 13.7497 0.00270804 14.8918 0.475756C16.0338 0.948803 17.0099 1.74988 17.6967 2.77769C18.3834 3.8055 18.75 5.01387 18.75 6.25C18.7483 7.9071 18.0893 9.49585 16.9176 10.6676C15.7458 11.8393 14.1571 12.4983 12.5 12.5ZM12.5 3.125C11.8819 3.125 11.2777 3.30828 10.7638 3.65166C10.2499 3.99504 9.8494 4.4831 9.61288 5.05412C9.37636 5.62514 9.31447 6.25347 9.43505 6.85966C9.55563 7.46585 9.85325 8.02267 10.2903 8.45971C10.7273 8.89675 11.2842 9.19438 11.8903 9.31496C12.4965 9.43554 13.1249 9.37365 13.6959 9.13713C14.2669 8.9006 14.755 8.50006 15.0983 7.98616C15.4417 7.47226 15.625 6.86807 15.625 6.25C15.625 5.4212 15.2958 4.62635 14.7097 4.04029C14.1237 3.45424 13.3288 3.125 12.5 3.125Z" fill="#0FF29F"/>
</svg>
